<?xml version="1.0" encoding="UTF-8" standalone="no" ?>
<!DOCTYPE svg PUBLIC "-//W3C//DTD SVG 1.1//EN" "http://www.w3.org/Graphics/SVG/1.1/DTD/svg11.dtd">
<svg xmlns="http://www.w3.org/2000/svg" xmlns:xlink="http://www.w3.org/1999/xlink" version="1.1" width="1080" height="1080" viewBox="0 0 1080 1080" xml:space="preserve">
<desc>Created with Fabric.js 5.2.4</desc>
<defs>
</defs>
<rect x="0" y="0" width="100%" height="100%" fill="transparent"></rect>
<g transform="matrix(1 0 0 1 540 540)" id="463e6e89-7705-4f83-b325-fb539739a5dc"  >
<rect style="stroke: none; stroke-width: 1; stroke-dasharray: none; stroke-linecap: butt; stroke-dashoffset: 0; stroke-linejoin: miter; stroke-miterlimit: 4; fill: rgb(255,255,255); fill-rule: nonzero; opacity: 1; visibility: hidden;" vector-effect="non-scaling-stroke"  x="-540" y="-540" rx="0" ry="0" width="1080" height="1080" />
</g>
<g transform="matrix(1 0 0 1 540 540)" id="15a4caff-93db-468a-a191-de7e63df0246"  >
</g>
<g transform="matrix(1.21 0 0 1.21 116.92 144.27)" style="" id="26469464-b760-4378-8625-895e293140ec"  >
		<text xml:space="preserve" font-family="Raleway" font-size="200" font-style="normal" font-weight="900" style="stroke: none; stroke-width: 1; stroke-dasharray: none; stroke-linecap: butt; stroke-dashoffset: 0; stroke-linejoin: miter; stroke-miterlimit: 4; fill: rgb(0,0,0); fill-rule: nonzero; opacity: 1; white-space: pre;" ><tspan x="-69" y="62.83" >B</tspan></text>
</g>
<g transform="matrix(1 0 0 1 540 540)"  >
<g style="" vector-effect="non-scaling-stroke"   >
		<g transform="matrix(1 0 0 1 -490 -490)"  >
<rect style="stroke: none; stroke-width: 1; stroke-dasharray: none; stroke-linecap: butt; stroke-dashoffset: 0; stroke-linejoin: miter; stroke-miterlimit: 4; fill: rgb(255,255,255); fill-opacity: 0; fill-rule: nonzero; opacity: 1;" vector-effect="non-scaling-stroke"  x="-50" y="-50" rx="0" ry="0" width="100" height="100" />
</g>
		<g transform="matrix(1 0 0 1 0 0)"  >
<rect style="stroke: none; stroke-width: 1; stroke-dasharray: none; stroke-linecap: butt; stroke-dashoffset: 0; stroke-linejoin: miter; stroke-miterlimit: 4; fill: rgb(255,255,255); fill-rule: nonzero; opacity: 1; visibility: hidden;" vector-effect="non-scaling-stroke"  x="-540" y="-540" rx="0" ry="0" width="1080" height="1080" />
</g>
		<g transform="matrix(1.43 0 0 1.43 0 -0.01)"  >
<path style="stroke: rgb(0,0,0); stroke-width: 0; stroke-dasharray: none; stroke-linecap: butt; stroke-dashoffset: 0; stroke-linejoin: miter; stroke-miterlimit: 4; fill: rgb(0,0,0); fill-rule: nonzero; opacity: 1;" vector-effect="non-scaling-stroke"  transform=" translate(-372.05, -502.23)" d="M 482.25091 133.1484 C 461.79478 135.09945 434.63398 147.25675 411.84466 197.7734 C 411.2619 196.56538 392.26006 157.86357 347.31341 140.2109 C 348.66882 142.12019 362.64767 164.49912 332.28216 236.61715 C 332.28216 236.61715 315.35165 196.80578 268.59466 166.9609 C 254.47682 242.8443 249.75707 275.68069 272.46966 348.7734 C 268.85373 366.18612 267.85704 382.72872 278.56341 394.7734 C 287.29287 404.59407 299.58897 415.17204 298.09466 421.80465 C 206.93484 452.66826 141.25091 538.99105 141.25091 640.5234 C 141.25091 767.92523 244.66157 871.30463 372.06341 871.30465 C 499.46524 871.30464 602.84467 767.92526 602.84466 640.5234 C 602.84468 539.47338 537.81969 453.47772 447.34466 422.24215 C 446.49898 410.69996 449.60616 404.87322 464.59466 397.7734 C 483.49643 388.81993 476.53823 351.01868 453.65716 338.0859 C 451.40975 336.81562 447.97334 335.3924 443.59466 333.8984 C 443.93833 317.97717 456.25239 302.84623 468.56341 291.30465 C 484.48068 276.38221 488.44922 234.623 478.50091 217.7109 C 468.55262 200.7988 467.23673 179.54617 482.50091 133.1484 C 482.42088 133.15574 482.33114 133.14075 482.25091 133.1484 z M 374.06341 186.86715 C 396.9445 217.70686 391.96404 266.43482 402.90716 267.42965 C 413.85028 268.42448 419.83319 211.71698 447.68841 188.8359 C 463.60567 229.62391 473.53846 256.49641 444.68841 281.36715 C 415.83834 306.23789 418.51488 322.13383 417.81341 340.05465 C 417.14913 357.02499 415.85074 365.94516 392.96966 368.92965 C 370.08858 371.91415 351.16773 340.06164 347.18841 293.30465 C 343.20909 246.54766 378.04273 206.76374 374.06341 186.86715 z M 289.50091 209.74215 C 289.5009 209.74215 304.42761 233.63176 314.37591 260.49215 C 324.32421 287.35255 319.34871 316.19335 350.18841 366.92965 C 350.18488 366.93257 350.16018 366.95821 350.15716 366.9609 C 350.15261 366.96625 350.13147 366.98633 350.12591 366.99215 C 350.12004 366.99786 350.10074 367.0186 350.09466 367.0234 C 350.07903 367.03145 350.04445 367.04867 350.03216 367.05465 C 347.85566 368.02299 323.98793 368.50055 297.43841 340.05465 C 269.58319 310.20976 268.60947 268.43708 289.50091 209.74215 z M 344.68841 449.5234 C 271.07102 537.06838 339.74389 541.87947 394.93841 522.61715 C 449.97997 503.4082 570.51081 531.56933 584.43841 624.5859 C 545.14268 582.80305 464.26126 566.01155 388.96966 643.99215 C 319.33159 716.11728 219.35035 780.00196 177.56341 676.8359 C 147.74978 603.23029 191.98208 462.45618 344.68841 449.5234 z M 508.84466 755.92965 C 487.45581 828.55219 398.41718 855.89741 340.21966 813.61715 C 379.018 808.64299 464.57475 779.30817 508.84466 755.92965 z M 228.81341 773.3359 C 249.2074 783.28418 266.59679 795.19966 279.03216 817.0859 C 256.64848 813.60396 235.77722 796.21697 228.81341 773.3359 z" stroke-linecap="round" />
</g>
</g>
</g>
</svg>